<?xml version="1.0" standalone="no"?>
<!DOCTYPE svg PUBLIC "-//W3C//DTD SVG 20010904//EN"
 "http://www.w3.org/TR/2001/REC-SVG-20010904/DTD/svg10.dtd">
<svg version="1.0" xmlns="http://www.w3.org/2000/svg"
 width="861.000000pt" height="735.000000pt" viewBox="0 0 861.000000 735.000000"
 preserveAspectRatio="xMidYMid meet">

<g transform="translate(0.000000,735.000000) scale(0.100000,-0.100000)"
fill="#000000" stroke="none">
<path d="M4055 7014 c-822 -86 -1511 -460 -2020 -1099 -103 -130 -153 -203
-237 -350 -236 -412 -350 -790 -380 -1253 -12 -177 -11 -183 9 -210 l20 -27
1102 -3 c945 -2 1101 0 1101 12 0 28 -118 135 -190 171 -95 48 -167 65 -273
65 -109 0 -200 -18 -370 -75 -159 -53 -247 -75 -307 -75 l-44 0 69 34 c39 18
122 68 185 111 200 136 302 170 505 169 146 -1 216 -20 344 -90 75 -42 238
-199 286 -276 l30 -48 348 0 c205 0 347 4 347 9 0 18 -103 100 -164 130 -34
17 -115 47 -181 67 -222 67 -305 123 -416 286 -160 235 -302 323 -519 322
-131 -1 -196 -20 -400 -118 -171 -83 -237 -108 -312 -122 -47 -8 -48 0 -5 22
37 19 173 122 295 223 142 118 264 164 437 164 121 1 200 -18 310 -73 113 -57
210 -143 297 -263 142 -196 177 -223 363 -277 195 -57 283 -106 430 -238 38
-35 99 -78 135 -95 l65 -32 322 -3 c204 -2 323 0 323 6 0 27 -131 124 -293
216 -27 15 -47 29 -45 30 2 2 44 -1 93 -5 160 -13 295 -81 420 -208 l39 -41
151 0 150 1 -25 20 c-54 43 -129 120 -191 194 -154 185 -351 277 -557 261 -74
-5 -188 -36 -288 -77 -28 -11 -36 -10 -88 21 -32 18 -54 36 -49 40 4 4 44 33
89 63 133 89 231 119 399 120 135 1 194 -12 310 -69 124 -61 207 -126 317
-250 51 -57 126 -131 166 -163 90 -72 217 -136 296 -150 33 -6 185 -11 338
-11 l279 0 26 26 26 26 -7 147 c-11 257 -52 478 -136 731 -148 450 -371 818
-690 1141 -461 465 -1012 748 -1655 850 -125 20 -477 34 -580 23z m87 -281
c25 -22 23 -59 -4 -77 -30 -22 -54 -20 -79 5 -20 20 -19 48 3 77 15 17 58 15
80 -5z m356 5 c28 -28 1 -98 -37 -98 -27 0 -61 30 -61 52 0 46 67 77 98 46z
m904 -205 c22 -20 23 -56 2 -77 -14 -14 -133 -16 -1159 -16 l-1145 0 -15 24
c-18 27 -9 57 23 75 11 7 403 10 1146 11 1037 0 1131 -1 1148 -17z m-572 -373
c25 -25 25 -41 1 -71 l-19 -24 -539 -1 c-296 -1 -548 3 -560 7 -44 16 -50 74
-9 101 6 4 257 8 559 8 534 0 547 0 567 -20z m-1975 -16 c71 -18 123 -47 187
-103 l47 -42 51 37 c108 77 240 85 320 18 52 -45 42 -53 -62 -51 -84 2 -99 -1
-151 -26 -32 -16 -70 -44 -85 -64 -15 -20 -38 -49 -52 -65 l-26 -30 -71 79
c-117 130 -219 165 -413 143 -119 -14 -144 -8 -138 34 10 66 246 109 393 70z
m3089 1 c97 -26 141 -71 101 -105 -12 -10 -37 -10 -119 -1 -208 23 -342 -26
-436 -160 -23 -33 -45 -59 -49 -59 -5 0 -27 25 -50 55 -23 31 -60 69 -82 85
-63 46 -162 59 -251 34 -30 -9 -21 31 12 60 81 68 232 56 325 -25 l35 -31 40
35 c63 57 116 89 183 108 78 22 214 24 291 4z m-1488 -264 c290 -60 536 -242
696 -516 50 -86 112 -258 122 -341 l6 -51 -86 -17 c-166 -33 -310 -98 -493
-223 -108 -73 -88 -73 -236 0 -129 64 -205 112 -310 198 -194 157 -299 230
-392 275 -98 47 -237 88 -342 100 -33 3 -61 11 -61 17 0 5 14 35 32 66 143
253 425 454 700 500 96 16 266 12 364 -8z m-1147 -187 c27 -34 26 -40 -4 -69
l-24 -25 -576 0 c-562 0 -575 0 -595 20 -27 27 -25 55 6 79 26 21 35 21 600
21 l573 0 20 -26z m3108 4 c28 -26 29 -52 3 -78 -20 -20 -33 -20 -605 -20
-572 0 -585 0 -605 20 -26 26 -25 48 2 77 l21 23 581 0 580 0 23 -22z m-345
-175 c35 -32 13 -93 -34 -93 -27 0 -58 28 -58 52 0 23 34 58 57 58 9 0 25 -7
35 -17z m-3554 -29 c39 -27 23 -78 -30 -97 -26 -9 -60 24 -60 58 0 49 47 69
90 39z m591 -183 c16 -11 12 -13 -74 -41 -38 -13 -92 -34 -120 -47 l-50 -23
-485 0 c-535 0 -530 -1 -530 60 0 62 -17 60 645 60 330 0 606 -4 614 -9z
m3548 -13 c30 -28 29 -52 -3 -77 -26 -21 -35 -21 -608 -21 -510 0 -584 2 -604
16 -28 19 -29 57 -2 84 20 20 33 20 607 20 l587 0 23 -22z m-497 -209 c16 -29
5 -64 -25 -77 -33 -15 -62 -1 -71 32 -9 39 12 66 51 66 25 0 37 -6 45 -21z
m-3660 -173 c0 -2 -30 -29 -66 -60 l-66 -56 -307 0 c-339 0 -351 2 -351 60 0
59 6 60 417 60 205 0 373 -2 373 -4z m4300 -16 c11 -11 20 -29 20 -40 0 -11
-9 -29 -20 -40 -19 -19 -33 -20 -377 -20 l-356 0 -65 36 c-35 20 -90 47 -121
60 l-56 23 478 1 c464 0 478 -1 497 -20z m-4790 -388 c0 -24 -318 -192 -364
-192 -13 0 -15 15 -15 94 l0 95 32 3 c67 8 347 8 347 0z m4878 -99 l3 -102
-58 20 c-98 33 -350 169 -337 181 3 3 92 5 197 4 l192 -1 3 -102z"/>
<path d="M936 4638 c-21 -30 -20 -56 4 -96 25 -41 25 -59 0 -97 -36 -54 -20
-115 29 -115 35 0 222 137 218 160 -1 8 -44 49 -95 92 -99 84 -129 94 -156 56z"/>
<path d="M7475 4610 c-130 -108 -138 -116 -131 -128 4 -6 49 -43 100 -82 103
-77 135 -86 162 -45 17 27 13 54 -17 97 -24 33 -24 56 1 93 36 54 18 116 -33
115 -12 -1 -49 -23 -82 -50z"/>
<path d="M1050 3726 c-36 -8 -94 -24 -129 -36 -489 -165 -661 -669 -354 -1035
101 -120 265 -214 568 -325 307 -113 412 -161 470 -212 127 -111 86 -273 -90
-355 -54 -25 -70 -28 -165 -27 -89 0 -115 4 -173 27 -98 38 -192 104 -272 189
-38 41 -92 98 -120 128 -59 63 -112 89 -181 90 -198 1 -294 -189 -193 -381 43
-83 215 -256 324 -328 305 -199 643 -245 952 -129 156 59 275 144 373 267 100
125 140 238 140 396 0 175 -54 300 -190 436 -124 125 -220 177 -545 294 -416
149 -434 157 -492 217 -39 41 -53 76 -53 134 0 57 18 92 74 141 64 56 134 76
246 71 77 -4 98 -9 164 -42 48 -23 103 -62 150 -106 112 -103 187 -134 272
-111 146 39 206 185 134 327 -54 108 -195 231 -336 295 -128 58 -227 81 -374
85 -90 2 -157 -1 -200 -10z"/>
<path d="M5325 3674 c-150 -19 -243 -107 -265 -251 -8 -51 -10 -326 -8 -905 3
-820 3 -834 24 -878 90 -195 358 -178 420 26 11 36 14 120 14 366 l0 318 368
0 c306 0 376 3 414 15 104 36 174 159 147 258 -18 68 -65 126 -123 153 -51 24
-52 24 -428 24 l-378 0 0 195 0 195 840 0 840 0 0 -742 c0 -467 4 -756 10
-779 45 -162 235 -218 357 -106 83 77 78 18 81 869 l3 756 252 4 c278 4 290 6
362 69 50 44 75 100 75 169 0 96 -53 175 -149 223 l-46 22 -1390 1 c-764 1
-1403 0 -1420 -2z"/>
<path d="M2278 3651 c-87 -28 -146 -101 -155 -193 -5 -57 5 -122 171 -1072 53
-301 106 -576 117 -610 36 -108 106 -192 204 -244 43 -23 62 -27 140 -27 77 0
98 4 147 27 100 47 175 131 211 239 9 25 28 104 42 175 28 139 40 178 53 170
5 -3 17 -42 26 -88 45 -204 58 -256 80 -303 32 -71 113 -155 183 -190 52 -27
68 -30 148 -30 78 1 97 4 145 28 64 33 131 95 164 152 49 83 48 79 175 875 23
140 63 394 91 564 41 257 48 316 40 353 -34 150 -193 224 -317 147 -81 -50
-96 -94 -138 -394 -20 -140 -47 -329 -61 -420 -14 -91 -39 -261 -55 -379 -16
-118 -31 -217 -34 -219 -2 -3 -22 13 -43 34 -53 54 -95 161 -153 390 -26 106
-57 210 -68 232 -40 79 -113 117 -210 110 -107 -8 -171 -77 -205 -223 -71
-296 -103 -399 -143 -460 -24 -38 -70 -84 -84 -85 -4 0 -9 19 -12 43 -2 23
-28 191 -57 372 -28 182 -71 454 -94 607 -49 313 -61 346 -140 393 -48 28
-125 40 -168 26z"/>
<path d="M4515 3636 c-58 -26 -97 -68 -117 -123 -10 -31 -13 -213 -13 -943 l0
-905 22 -41 c30 -56 80 -98 137 -114 115 -32 249 48 277 166 4 22 9 429 9 905
0 941 1 921 -55 996 -33 43 -115 83 -170 83 -22 0 -63 -11 -90 -24z"/>
<path d="M2879 1210 c-123 -37 -160 -193 -64 -269 15 -11 50 -27 78 -37 70
-23 97 -42 97 -68 0 -51 -51 -60 -115 -21 -22 14 -47 25 -56 25 -22 0 -59 -42
-59 -67 0 -43 97 -103 169 -103 79 0 160 56 181 127 28 94 -16 161 -137 207
-89 34 -100 45 -74 77 20 25 28 24 122 -7 10 -4 25 7 42 29 24 32 25 36 10 57
-33 46 -126 71 -194 50z"/>
<path d="M5490 1198 c-61 -31 -90 -77 -90 -141 0 -67 29 -109 95 -137 133 -57
152 -75 121 -109 -25 -28 -55 -26 -111 4 -43 23 -49 23 -75 10 -37 -19 -45
-47 -23 -81 20 -32 105 -74 148 -74 111 0 197 77 197 176 0 81 -35 116 -175
173 -51 22 -66 43 -47 66 16 20 51 19 95 -2 l36 -17 30 31 c38 37 33 63 -16
93 -54 33 -130 36 -185 8z"/>
<path d="M3242 1194 c-22 -15 -22 -19 -22 -242 0 -190 3 -231 16 -250 14 -21
22 -22 140 -22 111 0 126 2 144 20 25 25 25 41 1 71 -17 21 -30 24 -100 27
l-81 4 0 188 c0 168 -2 189 -18 203 -23 21 -51 22 -80 1z"/>
<path d="M3637 1192 c-15 -16 -17 -49 -17 -249 0 -210 2 -231 18 -246 15 -14
41 -17 144 -17 108 0 127 2 141 18 21 23 22 52 3 78 -12 16 -29 20 -100 23
l-86 3 0 184 c0 171 -1 185 -20 204 -25 25 -62 26 -83 2z"/>
<path d="M4050 1192 c-22 -18 -23 -21 -21 -252 1 -148 6 -239 13 -247 15 -18
291 -18 306 0 21 27 22 54 3 78 -17 22 -29 24 -110 27 l-91 4 0 44 0 44 69 0
c61 0 72 3 85 22 39 56 4 88 -96 88 l-68 0 0 29 c0 58 4 61 101 61 79 0 89 2
103 22 21 30 20 61 -2 81 -28 26 -260 25 -292 -1z"/>
<path d="M4492 1187 c-21 -22 -22 -31 -22 -249 0 -205 2 -226 18 -241 15 -14
42 -17 150 -17 120 0 134 2 153 21 14 14 18 27 13 42 -13 44 -30 52 -124 55
l-90 4 0 38 c0 43 12 50 91 50 50 0 79 21 79 57 0 37 -31 53 -103 53 l-67 0 0
45 0 44 91 3 c86 3 93 5 111 29 17 23 18 30 8 50 -7 13 -18 27 -24 31 -6 4
-68 8 -137 8 -118 0 -127 -1 -147 -23z"/>
<path d="M4940 1192 c-21 -17 -21 -23 -20 -245 0 -125 3 -233 6 -241 8 -20 46
-34 71 -25 31 11 43 40 43 102 l0 54 68 5 c82 6 116 21 154 69 74 91 36 229
-77 280 -56 26 -213 27 -245 1z m215 -127 c14 -13 25 -33 25 -45 0 -38 -44
-70 -95 -70 l-45 0 0 70 0 70 45 0 c35 0 52 -6 70 -25z"/>
<path d="M1871 991 c-27 -27 -27 -65 -1 -91 18 -18 33 -20 190 -20 157 0 172
2 190 20 26 26 25 62 -1 86 -19 17 -41 19 -189 22 -159 3 -170 2 -189 -17z"/>
<path d="M6246 989 c-31 -25 -34 -61 -6 -89 18 -18 33 -20 190 -20 157 0 172
2 190 20 28 28 25 64 -6 89 -24 19 -40 21 -184 21 -144 0 -160 -2 -184 -21z"/>
</g>
</svg>
