<?xml version="1.0" standalone="no"?>
<!DOCTYPE svg PUBLIC "-//W3C//DTD SVG 20010904//EN"
 "http://www.w3.org/TR/2001/REC-SVG-20010904/DTD/svg10.dtd">
<svg version="1.0" xmlns="http://www.w3.org/2000/svg"
 width="348.000000pt" height="348.000000pt" viewBox="0 0 348.000000 348.000000"
 preserveAspectRatio="xMidYMid meet">

<g transform="translate(0.000000,348.000000) scale(0.100000,-0.100000)"
fill="#000000" stroke="none">
<path d="M1682 2993 c-26 -15 -508 -450 -852 -770 -41 -38 -140 -129 -220
-202 -80 -73 -153 -148 -164 -167 -27 -52 -15 -96 43 -154 76 -76 132 -76 220
1 l46 41 5 -589 c5 -639 3 -617 63 -653 30 -18 52 -20 295 -20 300 0 310 2
343 73 17 39 19 71 19 450 l0 407 285 0 285 0 0 -410 c0 -446 1 -456 55 -498
27 -21 36 -22 309 -22 264 0 283 1 314 20 63 38 62 30 62 662 l0 572 28 -27
c50 -48 110 -32 180 48 44 51 58 96 41 143 -8 23 -168 169 -607 554 -328 287
-612 531 -632 540 -43 23 -77 23 -118 1z"/>
</g>
</svg>
